<?xml version="1.0" encoding="utf-8"?>
<!-- Generator: Adobe Illustrator 22.1.0, SVG Export Plug-In . SVG Version: 6.00 Build 0)  -->
<svg version="1.1" id="Layer_1" xmlns="http://www.w3.org/2000/svg" xmlns:xlink="http://www.w3.org/1999/xlink" x="0px" y="0px"
	 viewBox="0 0 153.5 189.4" style="enable-background:new 0 0 153.5 189.4;" xml:space="preserve">
<style type="text/css">
	.st0{fill:none;stroke:#272526;stroke-width:2.5;stroke-miterlimit:10;}
	.st1{fill:#272526;}
</style>
<rect x="2.1" y="1.3" class="st0" width="150.1" height="150.1"/>
<g>
	<path class="st1" d="M101.3,112.3V77.6H53.1v34.8h-3.4V41.6h3.4v32.8h48.2V41.6h3.4v70.7H101.3z"/>
</g>
<g>
	<path class="st1" d="M12.8,189.1v-8.3H2.2v8.3H0v-18h2.2v7.8h10.5V171H15v18H12.8z"/>
	<path class="st1" d="M21.7,189.1v-18h11.8v2h-9.6v5.8h9.4v2h-9.4v6.2h9.6v2H21.7z"/>
	<path class="st1" d="M38.8,180.1c0-5.5,4.1-9.3,9.3-9.3c3.2,0,5.4,1.5,6.8,3.6l-1.9,1.1c-1-1.5-2.9-2.6-4.9-2.6
		c-3.9,0-6.9,3-6.9,7.3c0,4.3,3,7.3,6.9,7.3c2.1,0,3.9-1.1,4.9-2.6l1.9,1.1c-1.5,2.1-3.7,3.6-6.9,3.6
		C42.8,189.4,38.8,185.6,38.8,180.1z"/>
	<path class="st1" d="M71.1,189.1l-6.8-8.1l-1.8,2.1v6.1h-2.2v-18h2.2v9.3l8-9.3h2.8l-7.5,8.6l8.2,9.5H71.1z"/>
	<path class="st1" d="M78.9,189.1v-18h11.8v2h-9.6v5.8h9.4v2h-9.4v8.2H78.9z"/>
	<path class="st1" d="M95.4,180.1c0-5.3,3.6-9.3,8.9-9.3c5.3,0,8.9,4,8.9,9.3c0,5.3-3.6,9.3-8.9,9.3C99,189.4,95.4,185.4,95.4,180.1
		z M111,180.1c0-4.2-2.6-7.3-6.6-7.3c-4.1,0-6.6,3.1-6.6,7.3c0,4.2,2.6,7.3,6.6,7.3C108.4,187.4,111,184.2,111,180.1z"/>
	<path class="st1" d="M129.7,189.1l-4.6-7.2h-3.6v7.2h-2.2v-18h7.2c3.3,0,5.6,2.1,5.6,5.4c0,3.2-2.2,5-4.7,5.2l4.9,7.3H129.7z
		 M129.8,176.5c0-2-1.5-3.4-3.6-3.4h-4.7v6.9h4.7C128.4,179.9,129.8,178.5,129.8,176.5z"/>
	<path class="st1" d="M138.1,189.1v-18h6.2c5.6,0,9.2,3.9,9.2,9c0,5.1-3.6,9-9.2,9H138.1z M151.2,180.1c0-3.9-2.5-7-6.9-7h-3.9v14
		h3.9C148.6,187.1,151.2,183.9,151.2,180.1z"/>
</g>
</svg>
